<?xml version="1.0" encoding="UTF-8"?>
<svg version="1.1" xmlns="http://www.w3.org/2000/svg" width="512" height="512">
<path d="M0 0 C1.15822266 0.26538574 1.15822266 0.26538574 2.33984375 0.53613281 C46.78318541 10.82921074 87.85051331 36.88587545 112.4921875 75.8359375 C127.54125101 100.44755129 138.26929853 127.78989795 138.09765625 156.96875 C138.0962413 157.88966431 138.09482635 158.81057861 138.09336853 159.75939941 C138.08781407 162.67296734 138.07527025 165.58645568 138.0625 168.5 C138.05747911 170.48697805 138.05291723 172.47395731 138.04882812 174.4609375 C138.0378596 179.30732188 138.02062683 184.15364749 138 189 C136.35 188.34 134.7 187.68 133 187 C132.6690332 187.61705811 132.33806641 188.23411621 131.99707031 188.86987305 C125.66439415 200.6602875 119.26259226 212.39891632 112.58837891 223.99975586 C108.72108717 230.72435748 104.91065578 237.47911718 101.125 244.25 C100.54057129 245.29518799 99.95614258 246.34037598 99.35400391 247.41723633 C98.1646078 249.54526011 96.97548147 251.67343469 95.78662109 253.80175781 C87.86391456 267.98424697 79.9243369 282.15675124 71.91845703 296.29248047 C68.9801376 301.48426141 66.05441988 306.68285638 63.14453125 311.890625 C62.50515625 313.03466797 61.86578125 314.17871094 61.20703125 315.35742188 C59.96762814 317.57684785 58.72930297 319.79687621 57.4921875 322.01757812 C56.93402344 323.01724609 56.37585938 324.01691406 55.80078125 325.046875 C55.30747314 325.93213867 54.81416504 326.81740234 54.3059082 327.72949219 C53.27194134 329.52719116 52.15035902 331.27446147 51 333 C50.69933846 335.75417318 50.49074701 338.42645147 50.375 341.1875 C50.33632813 341.93708984 50.29765625 342.68667969 50.2578125 343.45898438 C50.16371784 345.30559199 50.08077681 347.1527619 50 349 C47.36 349 44.72 349 42 349 C42 391.24 42 433.48 42 477 C-10.8 477 -63.6 477 -118 477 C-118 434.76 -118 392.52 -118 349 C-120.64 349 -123.28 349 -126 349 C-125.99460205 348.06655762 -125.9892041 347.13311523 -125.98364258 346.17138672 C-126.23669096 336.22652266 -128.41824412 329.7228231 -133.6875 321.125 C-134.37062241 319.96233825 -135.05073801 318.79790528 -135.72802734 317.63183594 C-137.11876743 315.24392908 -138.52281019 312.8647108 -139.93798828 310.49121094 C-143.11492845 305.1421544 -146.10778232 299.69012844 -149.125 294.25 C-154.09239777 285.37283782 -159.0946584 276.51551679 -164.10595703 267.66308594 C-168.09079739 260.61994393 -172.05002812 253.56274812 -176 246.5 C-180.50354416 238.44849172 -185.02147092 230.40542973 -189.5625 222.375 C-190.34693481 220.98631714 -190.34693481 220.98631714 -191.1472168 219.56958008 C-193.98692476 214.54581738 -196.83871828 209.52925614 -199.703125 204.51953125 C-200.30697021 203.46008301 -200.91081543 202.40063477 -201.53295898 201.30908203 C-202.69820325 199.26506869 -203.86685891 197.22299544 -205.03930664 195.18310547 C-205.55871826 194.27061035 -206.07812988 193.35811523 -206.61328125 192.41796875 C-207.07516846 191.61125732 -207.53705566 190.8045459 -208.01293945 189.97338867 C-209 188 -209 188 -209 186 C-210.65 186.99 -212.3 187.98 -214 189 C-214.07537316 183.34817265 -214.12916571 177.69665148 -214.16479492 172.04443359 C-214.17968141 170.13031912 -214.19999725 168.21623748 -214.22631836 166.30224609 C-214.7700271 125.68400514 -200.7720692 87.72499217 -174 57 C-172.75476563 55.55367187 -172.75476563 55.55367187 -171.484375 54.078125 C-160.60230942 41.67575602 -148.05660489 31.59128747 -134 23 C-132.97181152 22.36964844 -132.97181152 22.36964844 -131.92285156 21.7265625 C-114.51397205 11.20952774 -95.80950724 4.41828646 -76 0 C-75.32018066 -0.16371094 -74.64036133 -0.32742187 -73.93994141 -0.49609375 C-51.13958445 -5.84657752 -22.72584551 -5.51091094 0 0 Z M-196 173 C-195.4207202 176.6901061 -194.41768673 179.41387479 -192.55078125 182.640625 C-192.03966797 183.53330078 -191.52855469 184.42597656 -191.00195312 185.34570312 C-190.44443359 186.30412109 -189.88691406 187.26253906 -189.3125 188.25 C-188.12046915 190.32776679 -186.92908489 192.40590463 -185.73828125 194.484375 C-185.12033691 195.55880859 -184.50239258 196.63324219 -183.86572266 197.74023438 C-180.87149255 202.9717131 -177.93705673 208.23628033 -175 213.5 C-170.52050805 221.51169674 -166.02193634 229.51218543 -161.5 237.5 C-157.00155072 245.44760197 -152.52302851 253.40605134 -148.0625 261.375 C-147.4840332 262.40818359 -146.90556641 263.44136719 -146.30957031 264.50585938 C-143.32000973 269.84756174 -140.33510369 275.19181713 -137.35546875 280.5390625 C-132.04008062 290.06956056 -126.71546493 299.59069799 -121.1875 309 C-120.77274414 309.70640625 -120.35798828 310.4128125 -119.93066406 311.140625 C-118.20518915 314.24713976 -118.20518915 314.24713976 -116 317 C-113.85441173 317.08775605 -111.70595579 317.10695219 -109.55859375 317.09765625 C-108.38353271 317.09515869 -107.20847168 317.09266113 -105.99780273 317.09008789 C-104.47770163 317.08092388 -102.95760076 317.07172136 -101.4375 317.0625 C-98.86206204 317.0510122 -96.28662244 317.03988589 -93.71118164 317.02905273 C-91.47412109 317.01936849 -89.23706055 317.00968424 -87 317 C-96.15269338 291.90272044 -105.50440785 266.88233169 -114.90673828 241.87768555 C-115.79916176 239.50412389 -116.69156326 237.13055398 -117.58393097 234.75697136 C-118.1689921 233.2009207 -118.75415066 231.64490667 -119.33940887 230.08893013 C-122.82210992 220.82868325 -126.27863868 211.55974223 -129.69140625 202.2734375 C-130.63623291 199.71786802 -131.5822877 197.16275866 -132.52914429 194.60794067 C-133.08539117 193.09842587 -133.63682555 191.58712742 -134.18301392 190.07394409 C-134.90947517 188.06155301 -135.65185654 186.05577605 -136.3984375 184.05078125 C-136.78692871 182.98512939 -137.17541992 181.91947754 -137.57568359 180.8215332 C-140.11866408 175.78395598 -143.85670496 172.72545017 -148.875 170.3125 C-149.67679688 169.91675781 -150.47859375 169.52101562 -151.3046875 169.11328125 C-157.48986674 166.5585333 -163.06795688 165.61153268 -169.6875 165.625 C-170.47406982 165.62588623 -171.26063965 165.62677246 -172.07104492 165.62768555 C-181.01446385 165.80766854 -188.4323409 168.25832491 -196 173 Z M-119 182 C-118.3314555 185.87795993 -117.2197802 189.3870271 -115.84887695 193.07299805 C-115.17355423 194.89679237 -115.17355423 194.89679237 -114.48458862 196.75743103 C-113.98592634 198.09223352 -113.48715372 199.4269948 -112.98828125 200.76171875 C-112.46611574 202.16681023 -111.94424143 203.57200997 -111.42263794 204.97731018 C-110.01603504 208.76356229 -108.604423 212.54792827 -107.1916008 216.3318634 C-106.31365138 218.68441476 -105.43710863 221.03748518 -104.56106567 223.39074707 C-96.25473389 245.70292508 -87.88131026 267.98949266 -79.4375 290.25 C-79.19865208 290.87989712 -78.95980415 291.50979424 -78.71371841 292.15877914 C-77.14348945 296.29944233 -75.57063175 300.43909862 -73.99609375 304.578125 C-73.60253693 305.61433487 -73.2089801 306.65054474 -72.80349731 307.71815491 C-72.44609467 308.65582199 -72.08869202 309.59348907 -71.72045898 310.55957031 C-71.41027328 311.37435852 -71.10008759 312.18914673 -70.78050232 313.02862549 C-70.02084596 315.03043879 -70.02084596 315.03043879 -69 317 C-61.41 317 -53.82 317 -46 317 C-45.74502387 299.42346663 -45.54889261 281.84767517 -45.43006611 264.26971531 C-45.3734182 256.10730984 -45.29623584 247.94607664 -45.17016602 239.78442383 C-45.06029465 232.66803385 -44.98950672 225.55249295 -44.96502656 218.43527836 C-44.95072172 214.66852116 -44.91727878 210.90419219 -44.83696938 207.13821602 C-44.76186794 203.5874359 -44.73935167 200.04006438 -44.75581551 196.48856544 C-44.7513814 194.57543866 -44.69239608 192.66267742 -44.63137817 190.7505188 C-44.6991006 185.5701255 -44.88982971 182.31325495 -48.30650902 178.27155876 C-70.95979355 159.10016531 -98.07846683 163.30416185 -119 182 Z M-24 176 C-25.01994049 176.59004318 -26.03988098 177.18008636 -27.09072876 177.78800964 C-29.32782015 179.6827945 -29.9424629 180.72267225 -30.54511642 183.62745094 C-30.74127714 187.11555068 -30.74125765 190.55873906 -30.68115234 194.05200195 C-30.67945894 195.39262312 -30.68041178 196.73324986 -30.68380737 198.0738678 C-30.68552695 201.70617685 -30.65028566 205.33729394 -30.60836363 208.96932626 C-30.57082196 212.76759033 -30.56732861 216.56588261 -30.56021118 220.36430359 C-30.54157224 227.55384163 -30.49234876 234.74283139 -30.43211424 241.93212813 C-30.36501895 250.11822597 -30.33205262 258.30435018 -30.30194163 266.49065459 C-30.23924827 283.32743293 -30.13252217 300.16362484 -30 317 C-22.41 317 -14.82 317 -7 317 C-5.63847092 313.39002563 -4.27700518 309.78002743 -2.91565704 306.16998482 C-2.4065062 304.81985937 -1.89732516 303.46974531 -1.38811493 302.11964226 C1.74799021 293.80457812 4.88124241 285.48845334 8.00878906 277.17016602 C9.20880154 273.97926063 10.40902682 270.78843536 11.609375 267.59765625 C11.91223671 266.79248629 12.21509842 265.98731632 12.52713776 265.15774727 C16.45500259 254.71843734 20.40937535 244.28972667 24.39550781 233.87252808 C26.38074583 228.68378521 28.35594767 223.49124184 30.3283844 218.29762077 C31.6693074 214.76893625 33.01600989 211.2426789 34.37573242 207.72119141 C35.88650968 203.80846313 37.37377788 199.88720129 38.859375 195.96484375 C39.31217834 194.80448105 39.76498169 193.64411835 40.23150635 192.44859314 C40.62916199 191.38782059 41.02681763 190.32704803 41.43652344 189.23413086 C41.78890076 188.31417831 42.14127808 187.39422577 42.5043335 186.44639587 C43.21611599 184.01026945 43.21611599 184.01026945 42.22027588 181.79566956 C36.29930588 173.08279917 24.97697329 168.19938918 15 166 C0.12743171 165.09277333 -11.8959938 166.57838345 -24 176 Z M73 170 C72.15695312 170.38929688 71.31390625 170.77859375 70.4453125 171.1796875 C65.74915091 173.78182294 63.53297613 176.32829779 61.58374023 181.33178711 C61.1613205 182.40258514 60.73890076 183.47338318 60.30368042 184.57662964 C59.65835861 186.27119797 59.65835861 186.27119797 59 188 C58.57453888 189.09966095 58.14907776 190.1993219 57.71072388 191.33230591 C56.32338709 194.94595775 54.95801661 198.56754827 53.59765625 202.19140625 C53.08160828 203.56147764 52.56539365 204.93148626 52.04902649 206.30143738 C50.66951664 209.96319341 49.29276604 213.62598069 47.91674042 217.28904724 C47.05919486 219.57129622 46.20090091 221.85326231 45.34234619 224.13513184 C37.23556176 245.68157792 29.15372437 267.23739736 21.10160446 288.80433273 C20.37436249 290.7517071 19.64660097 292.69888664 18.91873169 294.64602661 C17.57651376 298.23718667 16.23722963 301.82943628 14.8984375 305.421875 C14.49973953 306.48826706 14.10104156 307.55465912 13.69026184 308.65336609 C13.15401436 310.09483757 13.15401436 310.09483757 12.60693359 311.56542969 C12.29452728 312.4032196 11.98212097 313.24100952 11.6602478 314.10418701 C10.94518476 315.82281221 10.94518476 315.82281221 11 317 C20.57 317 30.14 317 40 317 C46.38670457 305.86221033 52.73953482 294.70920558 59 283.5 C63.29470688 275.81074835 67.61788589 268.1397833 72 260.5 C78.14876228 249.77603406 84.18506359 238.99026038 90.21337891 228.19824219 C92.57666234 223.96771295 94.94182571 219.73823885 97.30834961 215.50952148 C98.4699384 213.43385851 99.63091697 211.35785391 100.79125977 209.28149414 C103.7496176 203.99347664 106.72676522 198.71721218 109.734375 193.45703125 C110.33499756 192.40402832 110.93562012 191.35102539 111.55444336 190.26611328 C112.69957308 188.26082432 113.84863126 186.25777201 115.00219727 184.25732422 C115.51322998 183.36158691 116.0242627 182.46584961 116.55078125 181.54296875 C117.00106689 180.75946045 117.45135254 179.97595215 117.9152832 179.16870117 C118.9480053 177.1039543 119.54410326 175.25510077 120 173 C118.48329636 172.20044999 116.96138002 171.41078612 115.4375 170.625 C114.59058594 170.18414062 113.74367188 169.74328125 112.87109375 169.2890625 C100.47837203 163.72498336 85.21507635 164.2023966 73 170 Z " fill="#F9D161" transform="translate(294,19)"/>
<path d="M0 0 C1.32245728 0.00737183 1.32245728 0.00737183 2.67163086 0.01489258 C47.65751603 0.79694193 91.64649274 22.62887961 122.875 54.3125 C149.50656719 82.32655762 168.20257933 121.19477548 167.97265625 160.28125 C167.9712413 161.20216431 167.96982635 162.12307861 167.96836853 163.07189941 C167.96281407 165.98546734 167.95027025 168.89895568 167.9375 171.8125 C167.93247911 173.79947805 167.92791723 175.78645731 167.92382812 177.7734375 C167.9128596 182.61982188 167.89562683 187.46614749 167.875 192.3125 C166.74818589 191.35833436 165.62301189 190.40223161 164.49853516 189.4453125 C163.87177887 188.91309082 163.24502258 188.38086914 162.59927368 187.83251953 C160.65382888 186.11752838 158.96129064 184.25899172 157.25 182.3125 C149.49718814 174.4236739 137.41871686 170.15256231 126.46850586 169.93212891 C118.04823424 169.95195615 110.54072341 170.41184619 102.875 174.3125 C102.20130875 174.63051071 101.52761749 174.94852142 100.83351135 175.27616882 C92.89231538 179.66487207 90.83642626 186.06959484 87.96875 194.29296875 C87.4467718 195.71783131 86.92207011 197.14169865 86.39486694 198.56463623 C85.27293086 201.60997215 84.16986359 204.66123243 83.08148193 207.71871948 C81.36590908 212.53810418 79.61032743 217.34227163 77.84814453 222.14477539 C75.71387325 227.97005119 73.58979184 233.79884812 71.47904396 239.63268948 C66.16923411 254.30734933 60.72133421 268.92971455 55.25456619 283.54649067 C53.59085667 287.99543778 51.93272943 292.44640451 50.28034019 296.89956856 C49.25856429 299.6527451 48.23470768 302.40514505 47.21049881 305.1574173 C46.50875167 307.04528223 45.8095662 308.93409875 45.11044312 310.82293701 C44.48898911 312.49020844 44.48898911 312.49020844 43.85498047 314.19116211 C43.4945163 315.16202255 43.13405212 316.132883 42.76266479 317.13316345 C41.875 319.3125 41.875 319.3125 40.875 320.3125 C39.53232587 320.39881874 38.18525678 320.41956473 36.83984375 320.41015625 C36.03095703 320.40693359 35.22207031 320.40371094 34.38867188 320.40039062 C33.53853516 320.39201172 32.68839844 320.38363281 31.8125 320.375 C30.95849609 320.37048828 30.10449219 320.36597656 29.22460938 320.36132812 C27.10804337 320.34950373 24.99151315 320.33156769 22.875 320.3125 C25.20133565 312.00807972 28.13597492 303.9609651 31.15234375 295.88671875 C31.67726187 294.47503732 32.20193938 293.06326641 32.72639465 291.65141296 C33.84064283 288.65375982 34.95697008 285.65689194 36.0748291 282.6605835 C37.53077774 278.75752563 38.98210621 274.85276922 40.43196297 270.94744492 C46.00982904 255.92513998 51.615735 240.91508147 57.37498665 225.96124458 C58.10218048 224.07181137 58.82750372 222.18167189 59.55210876 220.29124451 C61.76973186 214.50700428 63.99992924 208.72845925 66.25756836 202.9597168 C67.04223213 200.91873685 67.82621125 198.8774935 68.609375 196.8359375 C68.97464798 195.91946945 69.33992096 195.0030014 69.71626282 194.0587616 C70.0338707 193.22129898 70.35147858 192.38383636 70.67871094 191.52099609 C70.96002869 190.79947357 71.24134644 190.07795105 71.53118896 189.33456421 C71.98482524 186.66658217 71.3345351 185.54849194 69.875 183.3125 C57.62929823 172.42743176 45.02723192 169.48166644 29.10595703 170.13330078 C20.21841489 170.84718302 12.8183622 174.98170369 5.875 180.3125 C5.02120915 180.88831692 4.16741831 181.46413383 3.28775501 182.05739975 C0.67635172 184.0836793 0.67635172 184.0836793 0.24414349 186.92865372 C0.24137811 187.92787731 0.23861273 188.92710091 0.23576355 189.956604 C0.22047607 191.10642761 0.2051886 192.25625122 0.18943787 193.44091797 C0.19806351 194.6982373 0.20668915 195.95555664 0.21557617 197.25097656 C0.20712207 198.59146618 0.19647753 199.93194351 0.18380737 201.2723999 C0.15564456 204.90858181 0.15813523 208.54417417 0.16610122 212.18043232 C0.16922467 215.9815219 0.14419674 219.78242317 0.12214661 223.58343506 C0.08468092 230.7798601 0.07255714 237.97609616 0.0695222 245.17260909 C0.06483409 253.36610746 0.03191879 261.55941619 -0.00337565 269.75283098 C-0.07534074 286.60604615 -0.11083053 303.45914067 -0.125 320.3125 C-5.405 320.3125 -10.685 320.3125 -16.125 320.3125 C-16.11532196 318.62644653 -16.10564392 316.94039307 -16.09567261 315.20324707 C-16.01097543 299.31210769 -15.97820662 283.42174736 -15.99802971 267.53040314 C-16.0068927 259.36043971 -15.99717596 251.19129522 -15.94335938 243.02148438 C-15.89648672 235.89860425 -15.88484201 228.77667524 -15.9150821 221.65368986 C-15.92986911 217.88343862 -15.92729961 214.11503917 -15.88250351 210.34498596 C-15.84083938 206.79159238 -15.84650082 203.24132869 -15.88752174 199.68795776 C-15.89760051 197.77138843 -15.85834764 195.85475565 -15.81733704 193.93859863 C-15.94383994 187.29724086 -15.94383994 187.29724086 -19.31149673 181.77352905 C-23.67317827 178.21246473 -28.21280872 175.36655596 -33.5 173.375 C-34.96566406 172.80458984 -34.96566406 172.80458984 -36.4609375 172.22265625 C-48.08874479 168.25010625 -62.0801054 168.99828978 -73.125 174.3125 C-80.21775286 178.04489617 -85.84845727 183.55247134 -91.62109375 189.01953125 C-94.125 191.3125 -94.125 191.3125 -96.125 192.3125 C-96.24246667 183.35674496 -96.33049168 174.40126741 -96.38406086 165.44490147 C-96.40981182 161.28305318 -96.4445496 157.12174345 -96.50219727 152.96020508 C-97.12909702 106.44456779 -86.51967531 65.80655399 -53.45458984 31.69335938 C-52.32171454 30.51679993 -51.21462223 29.31550377 -50.11328125 28.109375 C-38.01674537 15.19940612 -18.09788357 -0.11999173 0 0 Z " fill="#3177A6" transform="translate(264.125,15.6875)"/>
<path d="M0 0 C-2.25741316 2.25741316 -4.15824043 3.05669786 -7.0625 4.375 C-20.57692493 11.04298157 -32.26735671 20.51890304 -43 31 C-43.639375 31.58910156 -44.27875 32.17820313 -44.9375 32.78515625 C-61.6951688 48.57305255 -73.63508589 71.20263456 -80.3125 93 C-80.54283936 93.74531982 -80.77317871 94.49063965 -81.01049805 95.25854492 C-85.02502852 109.16134275 -86.44829936 122.79380314 -86.29296875 137.19140625 C-86.28735131 138.75894254 -86.28309143 140.3264842 -86.28010559 141.89402771 C-86.26882538 145.95624159 -86.23951052 150.0181171 -86.20599365 154.0802002 C-86.17492266 158.2506859 -86.1615224 162.421228 -86.14648438 166.59179688 C-86.11461859 174.7280173 -86.06363529 182.8639662 -86 191 C-83.03 188.525 -83.03 188.525 -80 186 C-73.04075994 202.95472084 -66.69827901 220.13033742 -60.35131073 237.32032776 C-57.762968 244.32750086 -55.16720908 251.33193083 -52.5703125 258.3359375 C-52.28672504 259.10096588 -52.00313759 259.86599426 -51.71095657 260.65420532 C-46.03590462 275.95792834 -40.25127201 291.21841263 -34.36914062 306.44384766 C-34.06509308 307.23415375 -33.76104553 308.02445984 -33.44778442 308.8387146 C-32.89335621 310.27933274 -32.33618367 311.71889929 -31.77560425 313.15713501 C-30 317.7752124 -30 317.7752124 -30 320 C-35.94 320 -41.88 320 -48 320 C-51.43946625 312.51490115 -54.38330047 304.88420938 -57.26953125 297.171875 C-57.78394703 295.80319622 -58.29860188 294.43460728 -58.81347656 293.06610107 C-59.91108815 290.14739307 -61.00709148 287.22808796 -62.10195923 284.30834961 C-63.82679035 279.70974759 -65.55795782 275.11354531 -67.28979492 270.51757812 C-72.5716305 256.49471542 -77.8366549 242.46604612 -83.03877258 228.41339111 C-84.87487439 223.45390541 -86.71958839 218.49763748 -88.56650829 213.54217148 C-90.05334926 209.55022672 -91.52787708 205.55401022 -92.99350929 201.55423355 C-94.11633505 198.50086608 -95.25686549 195.45411306 -96.39453125 192.40625 C-96.78930664 191.31673035 -97.18408203 190.22721069 -97.59082031 189.10467529 C-100.17582664 182.24551755 -102.28453489 177.93340892 -108.97265625 174.453125 C-110.50212891 173.85757813 -110.50212891 173.85757813 -112.0625 173.25 C-113.08472656 172.84265625 -114.10695312 172.4353125 -115.16015625 172.015625 C-126.96949212 167.79220364 -140.67545101 168.91323537 -152 174 C-153.33958808 174.65400765 -154.67540354 175.31613857 -156 176 C-155.4207202 179.6901061 -154.41768673 182.41387479 -152.55078125 185.640625 C-151.78411133 186.97963867 -151.78411133 186.97963867 -151.00195312 188.34570312 C-150.44443359 189.30412109 -149.88691406 190.26253906 -149.3125 191.25 C-148.12046915 193.32776679 -146.92908489 195.40590463 -145.73828125 197.484375 C-145.12033691 198.55880859 -144.50239258 199.63324219 -143.86572266 200.74023438 C-140.87149255 205.9717131 -137.93705673 211.23628033 -135 216.5 C-130.52050805 224.51169674 -126.02193634 232.51218543 -121.5 240.5 C-117.00155072 248.44760197 -112.52302851 256.40605134 -108.0625 264.375 C-107.4840332 265.40818359 -106.90556641 266.44136719 -106.30957031 267.50585938 C-103.32000973 272.84756174 -100.33510369 278.19181713 -97.35546875 283.5390625 C-91.62819038 293.8066984 -85.88471709 304.05384625 -79.84277344 314.140625 C-77 318.90196809 -77 318.90196809 -77 320 C-80.3 320 -83.6 320 -87 320 C-87 325.61 -87 331.22 -87 337 C-89.79618381 333.50477024 -91.78562131 330.83179372 -93.8125 327 C-94.32417725 326.0416626 -94.83585449 325.0833252 -95.36303711 324.09594727 C-95.90323486 323.07428467 -96.44343262 322.05262207 -97 321 C-101.21216785 313.12703867 -105.48114166 305.30004515 -109.9375 297.5625 C-114.2980111 289.98465052 -118.60836376 282.38114653 -122.875 274.75 C-123.45942871 273.70481201 -124.04385742 272.65962402 -124.64599609 271.58276367 C-125.8353922 269.45473989 -127.02451853 267.32656531 -128.21337891 265.19824219 C-135.63701893 251.90913528 -143.07076682 238.6258616 -150.5625 225.375 C-151.08553711 224.44905029 -151.60857422 223.52310059 -152.14746094 222.5690918 C-154.9871226 217.54551187 -157.83880853 212.52909829 -160.703125 207.51953125 C-161.30697021 206.46008301 -161.91081543 205.40063477 -162.53295898 204.30908203 C-163.69820325 202.26506869 -164.86685891 200.22299544 -166.03930664 198.18310547 C-166.55871826 197.27061035 -167.07812988 196.35811523 -167.61328125 195.41796875 C-168.07516846 194.61125732 -168.53705566 193.8045459 -169.01293945 192.97338867 C-170 191 -170 191 -170 189 C-171.65 189.99 -173.3 190.98 -175 192 C-175.07537316 186.34817265 -175.12916571 180.69665148 -175.16479492 175.04443359 C-175.17968141 173.13031912 -175.19999725 171.21623748 -175.22631836 169.30224609 C-175.7700271 128.68400514 -161.7720692 90.72499217 -135 60 C-133.75476563 58.55367187 -133.75476563 58.55367187 -132.484375 57.078125 C-121.60230942 44.67575602 -109.05660489 34.59128747 -95 26 C-93.97181152 25.36964844 -93.97181152 25.36964844 -92.92285156 24.7265625 C-64.97984048 7.84565878 -32.62555619 -1.0524373 0 0 Z " fill="#3176A5" transform="translate(255,16)"/>
<path d="M0 0 C46.74702481 -1.50796854 91.27758958 17.72916381 125.23999023 49.31445312 C152.4176661 75.29354081 173.66924465 114.17752991 175.08654785 152.32977295 C175.11477838 154.87671565 175.11263908 157.42169822 175.09765625 159.96875 C175.0962413 160.88966431 175.09482635 161.81057861 175.09336853 162.75939941 C175.08781407 165.67296734 175.07527025 168.58645568 175.0625 171.5 C175.05747911 173.48697805 175.05291723 175.47395731 175.04882812 177.4609375 C175.0378596 182.30732188 175.02062683 187.15364749 175 192 C173.87318589 191.04583436 172.74801189 190.08973161 171.62353516 189.1328125 C170.99677887 188.60059082 170.37002258 188.06836914 169.72427368 187.52001953 C167.77882888 185.80502838 166.08629064 183.94649172 164.375 182 C156.62190759 174.11088843 144.54430938 169.84108049 133.59399414 169.61938477 C117.90969057 169.65798712 105.66845109 174.23174655 94.36743164 185.41772461 C92.93437815 186.87703395 91.52338664 188.3547001 90.1171875 189.83984375 C89.41851562 190.55269531 88.71984375 191.26554688 88 192 C87.67 192 87.34 192 87 192 C86.9845388 190.90364479 86.9845388 190.90364479 86.96876526 189.78514099 C86.86996691 182.82901514 86.76735141 175.87295442 86.66066074 168.91694546 C86.60596552 165.34252418 86.55264378 161.76809439 86.50268555 158.19360352 C86.45423817 154.73109847 86.40188993 151.26867069 86.34705925 147.80626106 C86.31736127 145.87083307 86.29149808 143.93534741 86.26576233 141.99986267 C85.99043058 124.22174508 85.99043058 124.22174508 83.3125 106.6875 C83.04759766 105.49495605 83.04759766 105.49495605 82.77734375 104.27832031 C77.27683127 80.45846405 66.78682014 58.74618359 51 40 C50.54270508 39.45311523 50.08541016 38.90623047 49.61425781 38.34277344 C35.7486319 21.98153451 18.88948364 10.75852062 0 1 C0 0.67 0 0.34 0 0 Z " fill="#EDEDED" transform="translate(257,16)"/>
<path d="M0 0 C0 63.36 0 126.72 0 192 C-7 186 -7 186 -9.88671875 183.40234375 C-22.36653317 172.41941084 -34.43908784 169.15243976 -50.76904297 169.82080078 C-64.42978018 170.91808477 -74.04020863 179.75169678 -83.49609375 188.70703125 C-86 191 -86 191 -88 192 C-88.11746667 183.04424496 -88.20549168 174.08876741 -88.25906086 165.13240147 C-88.28481182 160.97055318 -88.3195496 156.80924345 -88.37719727 152.64770508 C-89.00409702 106.13206779 -78.39467531 65.49405399 -45.32958984 31.38085938 C-44.19671454 30.20429993 -43.08962223 29.00300377 -41.98828125 27.796875 C-33.7397083 18.99362578 -12.73219049 0 0 0 Z " fill="#EEEEEE" transform="translate(256,16)"/>
<path d="M0 0 C0 41.91 0 83.82 0 127 C-41.91 127 -83.82 127 -127 127 C-123.28692617 122.66808053 -119.73223406 118.60696905 -115.72953796 114.60255432 C-115.2350907 114.10654706 -114.74064343 113.61053981 -114.23121291 113.09950203 C-112.59619023 111.46053367 -110.95766847 109.82511186 -109.3190918 108.18969727 C-108.13737158 107.00662025 -106.95586382 105.823331 -105.77455139 104.6398468 C-102.58305617 101.44381336 -99.38843109 98.25092603 -96.19307685 95.05875134 C-92.84749825 91.71571148 -89.50436798 88.37022465 -86.1608429 85.02513123 C-80.55327986 79.41575243 -74.94361905 73.80847802 -69.33276367 68.20239258 C-62.83809311 61.71317942 -56.34705434 55.22035014 -49.85785931 48.72566181 C-44.28508354 43.14835697 -38.71037265 37.57299197 -33.1340211 31.99926227 C-29.80359215 28.67039519 -26.47384943 25.34084927 -23.14584923 22.00955391 C-20.02332309 18.88415152 -16.8983847 15.76118177 -13.77152061 12.64011955 C-12.62130782 11.491235 -11.47195621 10.34148755 -10.3235054 9.19084167 C-8.76314072 7.62776841 -7.19976777 6.06776987 -5.63554382 4.50856018 C-4.32123398 3.19481588 -4.32123398 3.19481588 -2.98037243 1.85453129 C-1 0 -1 0 0 0 Z " fill="#E7B541" transform="translate(336,369)"/>
<path d="M0 0 C0.95036133 0.61560791 0.95036133 0.61560791 1.91992188 1.24365234 C8.64043552 5.77856848 14.08444137 10.51217502 15.76025391 18.7265625 C16.83162829 27.76332848 16.50839595 36.93459568 16 46 C17.98 44.35 19.96 42.7 22 41 C28.95924006 57.95472084 35.30172099 75.13033742 41.64868927 92.32032776 C44.237032 99.32750086 46.83279092 106.33193083 49.4296875 113.3359375 C49.71327496 114.10096588 49.99686241 114.86599426 50.28904343 115.65420532 C55.96409538 130.95792834 61.74872799 146.21841263 67.63085938 161.44384766 C67.93490692 162.23415375 68.23895447 163.02445984 68.55221558 163.8387146 C69.10664379 165.27933274 69.66381633 166.71889929 70.22439575 168.15713501 C72 172.7752124 72 172.7752124 72 175 C66.06 175 60.12 175 54 175 C50.56053375 167.51490115 47.61669953 159.88420938 44.73046875 152.171875 C44.21605297 150.80319622 43.70139812 149.43460728 43.18652344 148.06610107 C42.08891185 145.14739307 40.99290852 142.22808796 39.89804077 139.30834961 C38.17320965 134.70974759 36.44204218 130.11354531 34.71020508 125.51757812 C29.4283695 111.49471542 24.1633451 97.46604612 18.96122742 83.41339111 C17.12512561 78.45390541 15.28041161 73.49763748 13.43349171 68.54217148 C11.94665074 64.55022672 10.47212292 60.55401022 9.00649071 56.55423355 C7.88366495 53.50086608 6.74313451 50.45411306 5.60546875 47.40625 C5.21069336 46.31673035 4.81591797 45.22721069 4.40917969 44.10467529 C1.82417336 37.24551755 -0.28453489 32.93340892 -6.97265625 29.453125 C-7.99230469 29.05609375 -9.01195312 28.6590625 -10.0625 28.25 C-11.08472656 27.84265625 -12.10695312 27.4353125 -13.16015625 27.015625 C-24.96949212 22.79220364 -38.67545101 23.91323537 -50 29 C-51.33958808 29.65400765 -52.67540354 30.31613857 -54 31 C-53.4207202 34.6901061 -52.41768673 37.41387479 -50.55078125 40.640625 C-50.03966797 41.53330078 -49.52855469 42.42597656 -49.00195312 43.34570312 C-48.44443359 44.30412109 -47.88691406 45.26253906 -47.3125 46.25 C-46.12046915 48.32776679 -44.92908489 50.40590463 -43.73828125 52.484375 C-43.12033691 53.55880859 -42.50239258 54.63324219 -41.86572266 55.74023438 C-38.87149255 60.9717131 -35.93705673 66.23628033 -33 71.5 C-28.52050805 79.51169674 -24.02193634 87.51218543 -19.5 95.5 C-15.00155072 103.44760197 -10.52302851 111.40605134 -6.0625 119.375 C-5.1947998 120.92477539 -5.1947998 120.92477539 -4.30957031 122.50585938 C-1.32000973 127.84756174 1.66489631 133.19181713 4.64453125 138.5390625 C10.37180962 148.8066984 16.11528291 159.05384625 22.15722656 169.140625 C25 173.90196809 25 173.90196809 25 175 C21.7 175 18.4 175 15 175 C15 180.61 15 186.22 15 192 C12.20381619 188.50477024 10.21437869 185.83179372 8.1875 182 C7.67582275 181.0416626 7.16414551 180.0833252 6.63696289 179.09594727 C6.09676514 178.07428467 5.55656738 177.05262207 5 176 C0.78783215 168.12703867 -3.48114166 160.30004515 -7.9375 152.5625 C-12.2980111 144.98465052 -16.60836376 137.38114653 -20.875 129.75 C-21.45942871 128.70481201 -22.04385742 127.65962402 -22.64599609 126.58276367 C-23.8353922 124.45473989 -25.02451853 122.32656531 -26.21337891 120.19824219 C-33.63701893 106.90913528 -41.07076682 93.6258616 -48.5625 80.375 C-49.08553711 79.44905029 -49.60857422 78.52310059 -50.14746094 77.5690918 C-52.9871226 72.54551187 -55.83880853 67.52909829 -58.703125 62.51953125 C-59.30697021 61.46008301 -59.91081543 60.40063477 -60.53295898 59.30908203 C-61.69820325 57.26506869 -62.86685891 55.22299544 -64.03930664 53.18310547 C-64.55871826 52.27061035 -65.07812988 51.35811523 -65.61328125 50.41796875 C-66.07516846 49.61125732 -66.53705566 48.8045459 -67.01293945 47.97338867 C-68 46 -68 46 -68 44 C-69.65 44.99 -71.3 45.98 -73 47 C-75.58116312 17.72828658 -75.58116312 17.72828658 -70.15234375 9.78125 C-66.61517554 5.78163192 -62.53680769 2.77525943 -58 0 C-57.36529785 -0.40412109 -56.7305957 -0.80824219 -56.07666016 -1.22460938 C-38.63549788 -11.99041578 -16.92036111 -11.93727047 0 0 Z " fill="#29668C" transform="translate(153,161)"/>
<path d="M0 0 C5.99026511 4.28219755 14.59526295 10.44052589 17.91796875 17.0859375 C18.07317432 19.40866909 18.16816042 21.73553063 18.234375 24.0625 C18.2551561 24.7477475 18.27593719 25.432995 18.29734802 26.13900757 C18.3627706 28.32954819 18.42169429 30.52020939 18.48046875 32.7109375 C18.52366093 34.195325 18.56727545 35.67970028 18.61132812 37.1640625 C18.71924013 40.80456568 18.81836656 44.44515945 18.91796875 48.0859375 C22.54796875 44.4559375 26.17796875 40.8259375 29.91796875 37.0859375 C31.18102659 40.87511103 30.45112436 42.00903209 29.04150391 45.69726562 C28.60069992 46.86457214 28.15989594 48.03187866 27.70573425 49.23455811 C27.20628487 50.52881356 26.70671311 51.82302179 26.20703125 53.1171875 C25.68971509 54.47763881 25.17328176 55.83842609 24.65766907 57.19952393 C23.54582823 60.12947731 22.4283414 63.05718899 21.30636597 65.98327637 C19.53605313 70.60043979 17.77748773 75.22201215 16.02172852 79.84472656 C15.72613572 80.62290867 15.43054293 81.40109077 15.12599277 82.20285416 C14.52217831 83.79247892 13.91839491 85.38211548 13.31464195 86.97176361 C12.39057778 89.40349585 11.46527669 91.83475456 10.53974915 94.26593018 C6.19928746 105.6733332 1.91090593 117.09939594 -2.34375 128.5390625 C-2.63324272 129.31715271 -2.92273544 130.09524292 -3.22100067 130.89691162 C-5.75179347 137.6998462 -8.27985127 144.50379365 -10.8036499 151.30932617 C-12.10236754 154.8111585 -13.40355328 158.31206439 -14.70646095 161.81233978 C-15.18467844 163.09874039 -15.66186769 164.38552376 -16.13797569 165.6727066 C-16.78491799 167.42171358 -17.43544387 169.16939381 -18.08618164 170.91699219 C-18.44966202 171.89690125 -18.8131424 172.8768103 -19.18763733 173.88641357 C-20.08203125 176.0859375 -20.08203125 176.0859375 -21.08203125 177.0859375 C-22.42470538 177.17225624 -23.77177447 177.19300223 -25.1171875 177.18359375 C-25.92607422 177.18037109 -26.73496094 177.17714844 -27.56835938 177.17382812 C-28.41849609 177.16544922 -29.26863281 177.15707031 -30.14453125 177.1484375 C-30.99853516 177.14392578 -31.85253906 177.13941406 -32.73242188 177.13476562 C-34.84898788 177.12294123 -36.9655181 177.10500519 -39.08203125 177.0859375 C-36.7556956 168.78151722 -33.82105633 160.7344026 -30.8046875 152.66015625 C-30.27976938 151.24847482 -29.75509187 149.83670391 -29.2306366 148.42485046 C-28.11638842 145.42719732 -27.00006117 142.43032944 -25.88220215 139.434021 C-24.42625351 135.53096313 -22.97492504 131.62620672 -21.52506828 127.72088242 C-15.94720221 112.69857748 -10.34129625 97.68851897 -4.5820446 82.73468208 C-3.85485077 80.84524887 -3.12952753 78.95510939 -2.40492249 77.06468201 C-0.18729939 71.28044178 2.04289799 65.50189675 4.30053711 59.7331543 C5.08520088 57.69217435 5.86918 55.650931 6.65234375 53.609375 C7.01761673 52.69290695 7.38288971 51.7764389 7.75923157 50.8321991 C8.07683945 49.99473648 8.39444733 49.15727386 8.72167969 48.29443359 C9.00299744 47.57291107 9.28431519 46.85138855 9.57415771 46.10800171 C10.02779399 43.44001967 9.37750385 42.32192944 7.91796875 40.0859375 C-4.32773302 29.20086926 -16.92979933 26.25510394 -32.85107422 26.90673828 C-41.73861636 27.62062052 -49.13866905 31.75514119 -56.08203125 37.0859375 C-56.9358221 37.66175442 -57.78961294 38.23757133 -58.66927624 38.83083725 C-61.28067953 40.8571168 -61.28067953 40.8571168 -61.71288776 43.70209122 C-61.71703583 45.20092661 -61.71703583 45.20092661 -61.7212677 46.7300415 C-61.73655518 47.87986511 -61.75184265 49.02968872 -61.76759338 50.21435547 C-61.75896774 51.4716748 -61.7503421 52.72899414 -61.74145508 54.02441406 C-61.74990918 55.36490368 -61.76055372 56.70538101 -61.77322388 58.0458374 C-61.80138669 61.68201931 -61.79889602 65.31761167 -61.79093003 68.95386982 C-61.78780658 72.7549594 -61.81283451 76.55586067 -61.83488464 80.35687256 C-61.87235033 87.5532976 -61.88447411 94.74953366 -61.88750905 101.94604659 C-61.89219716 110.13954496 -61.92511246 118.33285369 -61.9604069 126.52626848 C-62.03237199 143.37948365 -62.06786178 160.23257817 -62.08203125 177.0859375 C-67.36203125 177.0859375 -72.64203125 177.0859375 -78.08203125 177.0859375 C-78.08203125 132.5359375 -78.08203125 87.9859375 -78.08203125 42.0859375 C-75.77203125 44.0659375 -73.46203125 46.0459375 -71.08203125 48.0859375 C-71.13029053 47.22540771 -71.1785498 46.36487793 -71.22827148 45.47827148 C-72.45680014 17.88718059 -72.45680014 17.88718059 -65.35571289 9.89355469 C-62.13193848 6.92220828 -58.80664421 4.3962948 -55.08203125 2.0859375 C-54.43282715 1.68036621 -53.78362305 1.27479492 -53.11474609 0.85693359 C-36.40151297 -9.14173767 -17.05824383 -9.92754516 0 0 Z " fill="#28668C" transform="translate(326.08203125,158.9140625)"/>
<path d="M0 0 C1.25244003 0.01273453 2.50488007 0.02546906 3.79527283 0.03858948 C7.09645135 0.08021607 10.39353873 0.1607758 13.69335938 0.26092529 C17.07176088 0.35364773 20.45076609 0.39423455 23.83007812 0.43945312 C30.43907721 0.53834031 37.04537661 0.68867322 43.65234375 0.87890625 C38.1804872 7.44748334 32.29423411 13.60672255 26.38745117 19.78100586 C25.83151779 20.36320137 25.27558441 20.94539688 24.70280457 21.54523468 C13.7283634 33.03551389 2.65280061 44.42673152 -8.45996571 55.78314877 C-15.51804444 62.99995892 -22.54202636 70.24455864 -29.4909668 77.56665039 C-35.57550485 83.97780233 -41.71780942 90.32670415 -47.93377036 96.61061102 C-51.21212641 99.92874336 -54.45668216 103.26820905 -57.63324928 106.68415642 C-79.18515561 129.79572954 -79.18515561 129.79572954 -94.84765619 130.60859901 C-102.0809023 130.7333391 -109.21300603 130.03798777 -116.34765625 128.87890625 C-117.95772913 118.7876843 -119.2189148 108.12629378 -113.01852417 99.41137695 C-108.29579579 93.76892191 -102.93935696 88.79258442 -97.5625 83.78515625 C-95.61658664 81.90031089 -93.68916262 79.99697507 -91.76112366 78.09387207 C-87.21891614 73.63084052 -82.61971868 69.23197402 -77.9951635 64.85449839 C-72.24087812 59.40180664 -66.56526573 53.86926163 -60.88867188 48.3359375 C-55.08169477 42.68000579 -49.26742281 37.03303863 -43.40525818 31.4342041 C-42.5135643 30.58164536 -41.62187042 29.72908661 -40.70315552 28.85069275 C-39.0515352 27.27373316 -37.39728698 25.69951866 -35.73973083 24.12879944 C-30.1450587 18.78539527 -25.00796847 13.19240079 -20.16456604 7.1598053 C-14.08211573 0.10873344 -9.02070359 -0.34908526 0 0 Z " fill="#3277A5" transform="translate(292.34765625,367.12109375)"/>
<path d="M0 0 C33.99 0 67.98 0 103 0 C99.13056402 4.51434198 95.45155916 8.62959784 91.22265625 12.71484375 C89.35521732 14.63479415 87.61716921 16.59045274 85.8744812 18.62133789 C82.01641343 23.04159059 77.9388266 27.20207378 73.78564453 31.34375 C72.99618942 32.13495743 72.20673431 32.92616486 71.39335632 33.74134827 C68.80900134 36.33006996 66.22104746 38.91515801 63.6328125 41.5 C61.82902657 43.30445999 60.02538907 45.10906836 58.22189331 46.91381836 C54.45619193 50.68098927 50.68874763 54.44640496 46.91992188 58.21044922 C42.55933958 62.56556322 38.20240865 66.92430528 33.84730256 71.28489494 C29.6501509 75.48711964 25.45020594 79.68654376 21.24905014 83.88476562 C19.46283331 85.67031346 17.67736427 87.45660967 15.89264297 89.24365234 C13.41016125 91.72865656 10.92452641 94.21046188 8.43798828 96.69140625 C7.69517105 97.43624771 6.95235382 98.18108917 6.18702698 98.94850159 C5.51422195 99.61848679 4.84141693 100.28847198 4.14822388 100.97875977 C3.26726138 101.85915672 3.26726138 101.85915672 2.36850166 102.75733948 C1 104 1 104 0 104 C0 69.68 0 35.36 0 0 Z " fill="#E4B442" transform="translate(176,368)"/>
<path d="M0 0 C5.28892731 3.32593808 9.4090422 7.64121132 13.6875 12.14453125 C15.71962661 14.46405753 15.71962661 14.46405753 17.9375 15.4375 C17.9375 12.7975 17.9375 10.1575 17.9375 7.4375 C18.2675 7.4375 18.5975 7.4375 18.9375 7.4375 C18.9375 21.2975 18.9375 35.1575 18.9375 49.4375 C11.49788647 43.06068841 11.49788647 43.06068841 8.3125 39.4375 C0.55940759 31.54838843 -11.51819062 27.27858049 -22.46850586 27.05688477 C-38.15280943 27.09548712 -50.39404891 31.66924655 -61.69506836 42.85522461 C-63.12812185 44.31453395 -64.53911336 45.7922001 -65.9453125 47.27734375 C-66.99332031 48.34662109 -66.99332031 48.34662109 -68.0625 49.4375 C-68.3925 49.4375 -68.7225 49.4375 -69.0625 49.4375 C-71.64366312 20.16578658 -71.64366312 20.16578658 -66.21484375 12.21875 C-62.67751991 8.22057595 -58.60733441 5.20025317 -54.0625 2.4375 C-53.08651855 1.83131836 -53.08651855 1.83131836 -52.09082031 1.21289062 C-35.0778447 -8.97210559 -17.31494515 -9.37779604 0 0 Z " fill="#C9CACB" transform="translate(413.0625,158.5625)"/>
<path d="M0 0 C0.8146875 0.36609375 1.629375 0.7321875 2.46875 1.109375 C5.17763515 2.53417823 7.52861688 4.19235978 10 6 C10.59232422 6.37125 11.18464844 6.7425 11.79492188 7.125 C17.06039161 10.51865622 21.46230483 14.15635412 24 20 C25.72800789 30.54248346 24.86710914 41.40221115 24 52 C20.67427094 49.16584212 17.36159348 46.32538521 14.11328125 43.40234375 C1.63346683 32.41941084 -10.43908784 29.15243976 -26.76904297 29.82080078 C-40.42978018 30.91808477 -50.04020863 39.75169678 -59.49609375 48.70703125 C-62 51 -62 51 -64 52 C-66.58116312 22.72828658 -66.58116312 22.72828658 -61.15234375 14.78125 C-57.61501991 10.78307595 -53.54483441 7.76275317 -49 5 C-48.02401855 4.39381836 -48.02401855 4.39381836 -47.02832031 3.77539062 C-32.2713875 -5.05900192 -15.80832406 -7.17734253 0 0 Z " fill="#C9CACB" transform="translate(232,156)"/>
<path d="M0 0 C0.3810791 0.68698975 0.7621582 1.37397949 1.15478516 2.08178711 C13.06297981 23.54464467 25.01800112 44.9802637 37.1081543 66.34130859 C41.06884474 73.34274082 45.00853679 80.35571832 48.9375 87.375 C49.5159668 88.40818359 50.09443359 89.44136719 50.69042969 90.50585938 C53.67999027 95.84756174 56.66489631 101.19181713 59.64453125 106.5390625 C65.37180962 116.8066984 71.11528291 127.05384625 77.15722656 137.140625 C80 141.90196809 80 141.90196809 80 143 C76.7 143 73.4 143 70 143 C70 148.61 70 154.22 70 160 C67.20381619 156.50477024 65.21437869 153.83179372 63.1875 150 C62.67582275 149.0416626 62.16414551 148.0833252 61.63696289 147.09594727 C61.09676514 146.07428467 60.55656738 145.05262207 60 144 C55.78783215 136.12703867 51.51885834 128.30004515 47.0625 120.5625 C42.7019889 112.98465052 38.39163624 105.38114653 34.125 97.75 C33.54057129 96.70481201 32.95614258 95.65962402 32.35400391 94.58276367 C31.1646078 92.45473989 29.97548147 90.32656531 28.78662109 88.19824219 C25.83941465 82.92242851 22.88910271 77.64835522 19.9375 72.375 C19.35758301 71.33891602 18.77766602 70.30283203 18.18017578 69.23535156 C14.8340935 63.2616078 11.47684157 57.29437324 8.10400391 51.33569336 C7.04305122 49.46005174 5.98409829 47.58327741 4.92724609 45.70532227 C2.32379224 41.08261007 -0.29920003 36.47379208 -2.97628784 31.89321899 C-4.64072167 29.03917096 -6.28655169 26.1743643 -7.9375 23.3125 C-8.57171875 22.24257812 -9.2059375 21.17265625 -9.859375 20.0703125 C-10.43042969 19.07386719 -11.00148438 18.07742187 -11.58984375 17.05078125 C-12.10409912 16.17075439 -12.61835449 15.29072754 -13.14819336 14.3840332 C-14 12 -14 12 -13.27929688 9.81811523 C-11.61747329 7.45635946 -9.72254105 5.66530734 -7.5625 3.75 C-6.78003906 3.04359375 -5.99757813 2.3371875 -5.19140625 1.609375 C-3 0 -3 0 0 0 Z " fill="#3C3C3C" transform="translate(98,193)"/>
<path d="M0 0 C4.33821438 0.84264573 6.18775383 2.87937569 9.25 6.0625 C10.14203125 6.98160156 11.0340625 7.90070313 11.953125 8.84765625 C12.62859375 9.55792969 13.3040625 10.26820313 14 11 C7.52346834 23.36977321 0.69424604 35.5354553 -6.14892578 47.70507812 C-8.54292463 51.96640871 -10.92843856 56.2324577 -13.31396484 60.49853516 C-18.88484012 70.45952772 -24.48320494 80.40449673 -30.10571289 90.33642578 C-34.09058281 97.37976026 -38.04987613 104.43712833 -42 111.5 C-48.63135084 123.35336658 -55.28720923 135.1925318 -62 147 C-62.40428223 147.71188477 -62.80856445 148.42376953 -63.22509766 149.15722656 C-64.22867441 150.92001555 -65.23895585 152.67898329 -66.25 154.4375 C-66.77078125 155.34371094 -67.2915625 156.24992188 -67.828125 157.18359375 C-68.21484375 157.78300781 -68.6015625 158.38242187 -69 159 C-69.33 159 -69.66 159 -70 159 C-70 153.72 -70 148.44 -70 143 C-73.3 143 -76.6 143 -80 143 C-74.45209791 131.3594927 -68.10773554 120.2048316 -61.71728516 109.01123047 C-58.9865229 104.22288505 -56.27424428 99.42413364 -53.5625 94.625 C-52.76271729 93.21069702 -52.76271729 93.21069702 -51.94677734 91.76782227 C-47.35180971 83.63683507 -42.78948772 75.48774415 -38.23071289 67.33642578 C-33.81346259 59.44205216 -29.36817682 51.56389762 -24.90991211 43.69262695 C-22.02088152 38.58804157 -19.14486399 33.47654766 -16.28515625 28.35546875 C-15.66382813 27.24300781 -15.0425 26.13054687 -14.40234375 24.984375 C-13.21473272 22.85625673 -12.02843839 20.72740288 -10.84375 18.59765625 C-7.34396886 12.32618083 -3.73518103 6.13426143 0 0 Z " fill="#3C3C3C" transform="translate(414,193)"/>
<path d="M0 0 C5.19210472 3.80304814 10.15609762 7.76158542 15 12 C16.98 10.35 18.96 8.7 21 7 C27.95924006 23.95472084 34.30172099 41.13033742 40.64868927 58.32032776 C43.237032 65.32750086 45.83279092 72.33193083 48.4296875 79.3359375 C48.71327496 80.10096588 48.99686241 80.86599426 49.28904343 81.65420532 C54.96409538 96.95792834 60.74872799 112.21841263 66.63085938 127.44384766 C66.93490692 128.23415375 67.23895447 129.02445984 67.55221558 129.8387146 C68.10664379 131.27933274 68.66381633 132.71889929 69.22439575 134.15713501 C71 138.7752124 71 138.7752124 71 141 C65.06 141 59.12 141 53 141 C49.56052524 133.51488263 46.61693376 125.88413378 43.73046875 118.171875 C43.21583501 116.80305476 42.70095097 115.4343286 42.18583679 114.06568909 C40.8032798 110.39033764 39.42394894 106.71378358 38.04531097 103.0369606 C36.60563595 99.19872566 35.16336832 95.36146536 33.72119141 91.52416992 C33.13305218 89.95921493 32.54491744 88.39425826 31.95678711 86.82929993 C31.66360596 86.0491836 31.3704248 85.26906727 31.06835938 84.46531105 C30.17134262 82.07803099 29.27472334 79.69060194 28.37817383 77.30314636 C24.59813036 67.23904415 20.80337379 57.18061512 16.99562263 47.12696457 C16.17790489 44.96764428 15.36064317 42.80815202 14.54356384 40.64859009 C14.27985143 39.95160067 14.01613901 39.25461124 13.74443531 38.53650093 C13.22108442 37.15325013 12.69774782 35.76999393 12.17442608 34.3867321 C10.90008343 31.01896267 9.62453972 27.65165692 8.3465271 24.28527832 C6.93328493 20.56258624 5.52505991 16.83800763 4.1171875 13.11328125 C3.69660568 12.00827774 3.27602386 10.90327423 2.84269714 9.76478577 C2.27643364 8.26340309 2.27643364 8.26340309 1.69873047 6.73168945 C1.36855927 5.86059036 1.03838806 4.98949127 0.69821167 4.09199524 C0 2 0 2 0 0 Z " fill="#3D3D3D" transform="translate(154,195)"/>
<path d="M0 0 C1.26305784 3.78917353 0.53315561 4.92309459 -0.87646484 8.61132812 C-1.31726883 9.77863464 -1.75807281 10.94594116 -2.2122345 12.14862061 C-2.71168388 13.44287606 -3.21125564 14.73708429 -3.7109375 16.03125 C-4.22825366 17.39170131 -4.74468699 18.75248859 -5.26029968 20.11358643 C-6.37214052 23.04353981 -7.48962735 25.97125149 -8.61160278 28.89733887 C-10.38191562 33.51450229 -12.14048102 38.13607465 -13.89624023 42.75878906 C-14.19183303 43.53697117 -14.48742582 44.31515327 -14.79197598 45.11691666 C-15.39579044 46.70654142 -15.99957384 48.29617798 -16.6033268 49.88582611 C-17.52739097 52.31755835 -18.45269206 54.74881706 -19.3782196 57.17999268 C-23.71868129 68.5873957 -28.00706282 80.01345844 -32.26171875 91.453125 C-32.55121147 92.23121521 -32.84070419 93.00930542 -33.13896942 93.81097412 C-35.66976222 100.6139087 -38.19782002 107.41785615 -40.72161865 114.22338867 C-42.02033629 117.725221 -43.32152203 121.22612689 -44.6244297 124.72640228 C-45.10264719 126.01280289 -45.57983644 127.29958626 -46.05594444 128.5867691 C-46.70288674 130.33577608 -47.35341262 132.08345631 -48.00415039 133.83105469 C-48.36763077 134.81096375 -48.73111115 135.7908728 -49.10560608 136.80047607 C-50 139 -50 139 -51 140 C-52.34267413 140.08631874 -53.68974322 140.10706473 -55.03515625 140.09765625 C-55.84404297 140.09443359 -56.65292969 140.09121094 -57.48632812 140.08789062 C-58.33646484 140.07951172 -59.18660156 140.07113281 -60.0625 140.0625 C-60.91650391 140.05798828 -61.77050781 140.05347656 -62.65039062 140.04882812 C-64.76695663 140.03700373 -66.88348685 140.01906769 -69 140 C-66.67365853 131.69555897 -63.73881906 123.64855586 -60.72265625 115.57421875 C-60.19781972 114.1623579 -59.67323402 112.75040378 -59.14888 111.33836365 C-57.74705076 107.56606358 -56.34113889 103.79529777 -54.93425751 100.02487946 C-53.76790201 96.89761601 -52.60390642 93.76947628 -51.43982697 90.64136505 C-41.05060714 62.72669836 -30.56009213 34.85047122 -20 7 C-16 7 -16 7 -11 11 C-7.37 7.37 -3.74 3.74 0 0 Z " fill="#3D3D3D" transform="translate(356,196)"/>
<path d="M0 0 C2.64 1.98 5.28 3.96 8 6 C10.64 4.02 13.28 2.04 16 0 C16 44.55 16 89.1 16 135 C10.72 135 5.44 135 0 135 C0 90.45 0 45.9 0 0 Z " fill="#3C3D3D" transform="translate(248,201)"/>
<path d="M0 0 C33.99 0 67.98 0 103 0 C96.25266904 7.87188612 96.25266904 7.87188612 92.75 11.3125 C92.08484375 11.96863281 91.4196875 12.62476563 90.734375 13.30078125 C89.87585938 14.14189453 89.87585938 14.14189453 89 15 C88.34 15.66 87.68 16.32 87 17 C84.22668262 17.15852783 81.55780116 17.19210315 78.78662109 17.13525391 C77.9377684 17.12579239 77.08891571 17.11633087 76.21434021 17.10658264 C73.40049049 17.07282692 70.58707437 17.02473327 67.7734375 16.9765625 C65.82574608 16.95040341 63.8780425 16.92513577 61.93032837 16.90072632 C56.79765465 16.83399658 51.66523586 16.75512091 46.53277588 16.67376709 C41.29799199 16.59292374 36.06305829 16.52349592 30.828125 16.453125 C20.55189558 16.31329441 10.27594163 16.15958586 0 16 C0 10.72 0 5.44 0 0 Z " fill="#AE8D30" transform="translate(176,368)"/>
<path d="M0 0 C1.25244003 0.01273453 2.50488007 0.02546906 3.79527283 0.03858948 C7.09645135 0.08021607 10.39353873 0.1607758 13.69335938 0.26092529 C17.07176088 0.35364773 20.45076609 0.39423455 23.83007812 0.43945312 C30.43907721 0.53834031 37.04537661 0.68867322 43.65234375 0.87890625 C42.29843621 2.51053842 40.93471411 4.13463611 39.53379822 5.72608948 C38.22455775 7.22416179 36.95540452 8.75782744 35.71925354 10.3167572 C31.63404282 15.05522781 28.7523688 17.4239482 22.39819336 17.90063477 C20.03321261 17.89922516 17.66789982 17.84926463 15.3046875 17.7578125 C14.05224747 17.74507797 12.79980743 17.73234344 11.50941467 17.71922302 C8.20823615 17.67759643 4.91114877 17.5970367 1.61132812 17.49688721 C-1.76707338 17.40416477 -5.14607859 17.36357795 -8.52539062 17.31835938 C-15.13438971 17.21947219 -21.74068911 17.06913928 -28.34765625 16.87890625 C-26.99374871 15.24727408 -25.63002661 13.62317639 -24.22911072 12.03172302 C-22.91987025 10.53365071 -21.65071702 8.99998506 -20.41456604 7.4410553 C-14.20120646 0.23412676 -9.24835818 -0.35789509 0 0 Z " fill="#204D5E" transform="translate(292.34765625,367.12109375)"/>
<path d="M0 0 C0 4.95 0 9.9 0 15 C-4.95 15 -9.9 15 -15 15 C-2.5 0 -2.5 0 0 0 Z " fill="#AF8D30" transform="translate(336,369)"/>
</svg>
